<?xml version="1.0" encoding="utf-8"?>
<!-- Generator: Adobe Illustrator 26.1.0, SVG Export Plug-In . SVG Version: 6.00 Build 0)  -->
<svg version="1.1" id="Logo" xmlns="http://www.w3.org/2000/svg" xmlns:xlink="http://www.w3.org/1999/xlink" x="0px" y="0px"
	 viewBox="0 0 192.5 76.4" style="enable-background:new 0 0 192.5 76.4;" xml:space="preserve">
<style type="text/css">
	.st0{fill:#FFFFFF;}
</style>
<g>
	<path class="st0" d="M11.5,52.8v4.5h-1c-0.1-0.5-0.3-0.9-0.5-1.1c-1,1-2.3,1.5-3.9,1.5c-1.8,0-3.3-0.6-4.4-1.8S0,53.2,0,51.6
		c0-1.6,0.5-3.1,1.6-4.4s2.6-1.9,4.5-1.9c1.4,0,2.7,0.5,3.7,1.4c0.1-0.3,0.3-0.7,0.4-1.1h1l0.1,4.4h-1C10.1,48.9,9.6,48,9,47.4
		s-1.4-0.9-2.3-0.9c-1,0-1.8,0.4-2.3,1.2s-0.8,2.1-0.8,3.8c0,1.2,0.1,2.2,0.3,2.9s0.6,1.2,1.1,1.6s1.2,0.6,1.8,0.6
		c0.9,0,1.6-0.3,2.3-0.9s1.2-1.5,1.5-2.8H11.5z"/>
	<path class="st0" d="M19.1,54.2l-0.2,0.6c-0.2,0.4-0.2,0.7-0.2,0.9c0,0.3,0.1,0.5,0.3,0.6s0.5,0.2,0.9,0.2v1h-3.9v-1
		c0.8,0,1.4-0.6,1.9-1.9l3.7-9.2h1l3.7,9.2c0.4,0.9,0.7,1.5,1,1.6s0.6,0.3,0.9,0.3v1h-5.9v-1c0.5,0,0.9-0.1,1-0.2s0.2-0.2,0.2-0.4
		c0-0.1-0.1-0.3-0.2-0.6l-0.1-0.3l-0.3-0.9H19.1z M19.4,53.2h2.9l-1.5-3.6L19.4,53.2z"/>
	<path class="st0" d="M36.4,52.2V55c0,0.5,0.1,0.9,0.3,1.1s0.6,0.3,1.2,0.3h0.2v1h-6.4v-1h0.2c0.6,0,1-0.1,1.2-0.3s0.3-0.6,0.3-1.1
		v-7c0-0.5-0.1-0.9-0.3-1.1s-0.6-0.3-1.2-0.3h-0.2v-1l4.8,0l1.1,0c1.1,0,1.8,0,2.3,0.1s1,0.2,1.4,0.5s0.8,0.6,1.1,1.1s0.4,1,0.4,1.5
		c0,1.4-0.8,2.4-2.4,2.9c0.4,0.3,1.1,1.1,2,2.5c0.7,1.1,1.2,1.8,1.5,2s0.6,0.3,1,0.3v1h-3.7c-0.3-0.4-1-1.4-1.9-3.1
		c-0.5-0.8-0.8-1.4-1-1.6s-0.4-0.4-0.6-0.5S37.1,52.2,36.4,52.2z M36.4,51.1c1,0,1.7,0,2-0.2s0.6-0.4,0.8-0.7s0.3-0.8,0.3-1.4
		c0-0.8-0.2-1.4-0.6-1.7s-1.1-0.5-2-0.5c-0.1,0-0.3,0-0.5,0V51.1z"/>
	<path class="st0" d="M48.7,51.4c0-1.1,0.3-2.1,0.9-3.1s1.4-1.8,2.4-2.3s2.1-0.7,3.3-0.7c2.1,0,3.7,0.6,4.9,1.8s1.8,2.7,1.8,4.5
		c0,1.7-0.6,3.1-1.8,4.3s-2.8,1.8-4.9,1.8c-1.4,0-2.6-0.3-3.7-0.9s-1.8-1.4-2.3-2.4S48.7,52.4,48.7,51.4z M52.4,51.3
		c0,1.8,0.2,3.2,0.7,4s1.2,1.2,2.2,1.2c1,0,1.8-0.4,2.3-1.1s0.8-2,0.8-3.9c0-1.7-0.2-3-0.7-3.8s-1.3-1.3-2.3-1.3
		c-1,0-1.7,0.4-2.2,1.2S52.4,49.6,52.4,51.3z"/>
	<path class="st0" d="M77.8,53.5l-0.1,4H66.9v-1h0.2c0.6,0,1-0.1,1.2-0.3s0.3-0.6,0.3-1.1v-7c0-0.5-0.1-0.9-0.3-1.1
		s-0.6-0.3-1.2-0.3h-0.2v-1h6.4v1H73c-0.6,0-1,0.1-1.2,0.3s-0.3,0.6-0.3,1.1v6.8c0,0.5,0,0.8,0.1,1s0.2,0.3,0.5,0.4s0.7,0.2,1.3,0.2
		c1,0,1.8-0.3,2.3-0.8s0.9-1.2,1.1-2.1H77.8z"/>
	<path class="st0" d="M82,46.5v-1h6.3v1h-0.2c-0.6,0-1,0.1-1.2,0.3s-0.3,0.6-0.3,1.1v7c0,0.5,0.1,0.9,0.3,1.1s0.6,0.3,1.1,0.3h0.2v1
		H82v-1c0.6,0,1.1-0.1,1.3-0.3s0.3-0.6,0.3-1.2v-7c0-0.6-0.1-1-0.3-1.2S82.7,46.5,82,46.5z"/>
	<path class="st0" d="M95.7,48.9v5.5c0,0.9,0.2,1.4,0.5,1.7s0.7,0.4,1.2,0.4v1h-4.5v-1c0.4,0,0.7-0.1,1-0.3s0.5-0.4,0.5-0.6
		s0.1-0.6,0.1-1.1v-6.1c0-1.2-0.6-1.8-1.7-1.8v-1h4l6.5,7.3v-4.4c0-1.3-0.5-2-1.6-2v-1h4.3v1c-0.3,0-0.6,0.1-0.8,0.2
		s-0.4,0.4-0.5,0.6s-0.1,0.6-0.1,1.1v9.1h-1.1L95.7,48.9z"/>
	<path class="st0" d="M112.4,54.2l-0.2,0.6c-0.2,0.4-0.2,0.7-0.2,0.9c0,0.3,0.1,0.5,0.3,0.6s0.5,0.2,0.9,0.2v1h-3.9v-1
		c0.8,0,1.4-0.6,1.9-1.9l3.7-9.2h1l3.7,9.2c0.4,0.9,0.7,1.5,1,1.6s0.6,0.3,0.9,0.3v1h-5.9v-1c0.5,0,0.9-0.1,1-0.2s0.2-0.2,0.2-0.4
		c0-0.1-0.1-0.3-0.2-0.6l-0.1-0.3l-0.3-0.9H112.4z M112.8,53.2h2.9l-1.5-3.6L112.8,53.2z"/>
	<path class="st0" d="M133.6,51.4c0-1.1,0.3-2.1,0.9-3.1s1.4-1.8,2.4-2.3s2.1-0.7,3.3-0.7c2.1,0,3.7,0.6,4.9,1.8s1.8,2.7,1.8,4.5
		c0,1.7-0.6,3.1-1.8,4.3s-2.8,1.8-4.9,1.8c-1.4,0-2.6-0.3-3.7-0.9s-1.8-1.4-2.3-2.4S133.6,52.4,133.6,51.4z M137.3,51.3
		c0,1.8,0.2,3.2,0.7,4s1.2,1.2,2.2,1.2c1,0,1.8-0.4,2.3-1.1s0.8-2,0.8-3.9c0-1.7-0.2-3-0.7-3.8s-1.3-1.3-2.3-1.3
		c-1,0-1.7,0.4-2.2,1.2S137.3,49.6,137.3,51.3z"/>
	<path class="st0" d="M153.5,54.2l-0.2,0.6c-0.2,0.4-0.2,0.7-0.2,0.9c0,0.3,0.1,0.5,0.3,0.6s0.5,0.2,0.9,0.2v1h-3.9v-1
		c0.8,0,1.4-0.6,1.9-1.9l3.7-9.2h1l3.7,9.2c0.4,0.9,0.7,1.5,1,1.6s0.6,0.3,0.9,0.3v1h-5.9v-1c0.5,0,0.9-0.1,1-0.2s0.2-0.2,0.2-0.4
		c0-0.1-0.1-0.3-0.2-0.6l-0.1-0.3l-0.3-0.9H153.5z M153.9,53.2h2.9l-1.5-3.6L153.9,53.2z"/>
	<path class="st0" d="M170.8,52.7V55c0,0.6,0.1,0.9,0.3,1.1s0.6,0.3,1.2,0.3v1h-6.2v-1h0.2c0.6,0,1-0.1,1.2-0.3s0.3-0.6,0.3-1.1v-7
		c0-0.5-0.1-0.9-0.3-1.1s-0.6-0.3-1.2-0.3h-0.2v-1h6.4v1h-0.2c-0.6,0-1,0.1-1.2,0.3s-0.3,0.6-0.3,1.1v3.3l3.2-3
		c0.6-0.5,0.8-0.9,0.8-1.3c0-0.4-0.4-0.5-1.1-0.5v-1h5.3v1c-0.5,0-1,0.1-1.5,0.4s-1.3,0.8-2.2,1.7l-1.1,1l3.3,4.9
		c0.6,0.8,1,1.4,1.4,1.6s0.8,0.4,1.4,0.4v1h-6.8v-1c0.9,0,1.3-0.2,1.3-0.5c0-0.2-0.2-0.5-0.5-1l-2.3-3.3L170.8,52.7z"/>
	<path class="st0" d="M184,57.2v-4.1h1.1c0.3,1.2,0.7,2.1,1.3,2.6s1.2,0.8,1.9,0.8c0.5,0,0.9-0.1,1.2-0.4s0.4-0.7,0.4-1.1
		c0-0.3-0.1-0.6-0.3-0.9s-0.6-0.6-1.3-1c-1.4-0.7-2.3-1.2-2.7-1.5s-0.9-0.7-1.1-1.2s-0.4-1.1-0.4-1.7c0-1,0.4-1.9,1.1-2.5
		s1.6-1,2.6-1c1,0,1.9,0.3,2.6,1c0.1-0.2,0.2-0.4,0.3-0.8h1V49h-1c-0.2-0.8-0.5-1.4-1-1.9s-1-0.8-1.7-0.8c-0.5,0-0.8,0.1-1.1,0.4
		s-0.4,0.6-0.4,1c0,0.3,0.1,0.6,0.3,0.8s0.4,0.5,0.7,0.6s0.9,0.5,1.9,0.9c0.9,0.4,1.5,0.8,1.9,1.1s0.7,0.7,1,1.2s0.4,1,0.4,1.6
		c0,1.1-0.4,1.9-1.2,2.6s-1.7,1.1-2.8,1.1c-0.6,0-1.2-0.1-1.8-0.4s-1.1-0.6-1.4-1c-0.1,0.3-0.2,0.6-0.3,1H184z"/>
</g>
<g>
	<path class="st0" d="M48,76V66h1.9c1.4,0,2.4,0.1,3,0.2s1.1,0.4,1.5,0.7c0.6,0.4,1,1,1.3,1.7s0.4,1.5,0.4,2.4
		c0,0.9-0.1,1.7-0.4,2.4s-0.7,1.2-1.3,1.7c-0.4,0.3-0.9,0.6-1.5,0.7S51.5,76,50.4,76h-0.4H48z M49.2,74.9H50c1.2,0,2.1-0.1,2.6-0.2
		s0.9-0.3,1.2-0.6c0.4-0.3,0.7-0.8,0.9-1.3S55,71.7,55,71c0-0.7-0.1-1.3-0.3-1.8s-0.5-1-0.9-1.3c-0.3-0.3-0.7-0.5-1.2-0.6
		s-1.3-0.2-2.5-0.2h-0.8V74.9z"/>
	<path class="st0" d="M59.3,76V66h5.3v1.1h-4.1v2.9h4.1V71h-4.1v3.8h4.1V76H59.3z"/>
	<path class="st0" d="M67.7,76V65.6l7.3,8V66h1.1v10.4l-7.3-7.9V76H67.7z"/>
	<path class="st0" d="M81.4,76v-8.9h-2.8V66h6.8v1.1h-2.8V76H81.4z"/>
	<path class="st0" d="M90,65.6L94.6,76h-1.3L92,72.9h-3.9L86.8,76h-1.3L90,65.6z M90,68.2l-1.6,3.7h3.2L90,68.2z"/>
	<path class="st0" d="M96.7,76V66h1.2v8.9h3.8V76H96.7z"/>
	<path class="st0" d="M117.6,68.4c-0.5-0.5-1-0.9-1.5-1.2s-1.1-0.4-1.8-0.4c-0.5,0-1,0.1-1.5,0.3s-0.9,0.5-1.3,0.9
		c-0.4,0.4-0.7,0.8-0.9,1.3s-0.3,1-0.3,1.6c0,0.5,0.1,0.9,0.2,1.3s0.3,0.8,0.5,1.1c0.4,0.6,0.9,1,1.5,1.3s1.2,0.5,1.9,0.5
		c0.6,0,1.2-0.1,1.8-0.4s1-0.7,1.5-1.2v1.6c-0.5,0.4-1,0.6-1.6,0.8s-1.2,0.3-1.8,0.3c-0.5,0-1-0.1-1.5-0.2s-1-0.4-1.4-0.7
		c-0.7-0.5-1.3-1.1-1.7-1.9S109,71.9,109,71c0-0.8,0.1-1.5,0.4-2.1s0.7-1.2,1.2-1.7c0.5-0.5,1.1-0.9,1.7-1.1s1.3-0.4,2-0.4
		c0.6,0,1.1,0.1,1.7,0.3s1.1,0.4,1.6,0.8V68.4z"/>
	<path class="st0" d="M123.9,65.6l4.6,10.4h-1.3l-1.3-3.1H122l-1.3,3.1h-1.3L123.9,65.6z M123.9,68.2l-1.6,3.7h3.2L123.9,68.2z"/>
	<path class="st0" d="M130.6,76V66h2.4c0.7,0,1.2,0,1.5,0.1s0.6,0.2,0.8,0.4c0.3,0.2,0.5,0.5,0.7,0.9s0.2,0.8,0.2,1.3
		c0,0.8-0.2,1.4-0.7,1.9s-1.1,0.6-2,0.6h-0.2l3.8,4.8h-1.5l-3.7-4.8h-0.2V76H130.6z M131.8,67v3.3h0.9c0.9,0,1.6-0.1,1.9-0.4
		s0.5-0.7,0.5-1.3c0-0.6-0.2-1.1-0.5-1.4s-0.9-0.4-1.9-0.4H131.8z"/>
	<path class="st0" d="M139.2,76V66h5.3v1.1h-4.1v2.9h4.1V71h-4.1v3.8h4.1V76H139.2z"/>
</g>
<path class="st0" d="M106.2,6.2L101.8,0l-8.9,6.4c-0.2-0.5-0.4-1-0.4-1.5c0.1-0.6,0.4-1.1,1-1.6l-1.1-1.6c-1.1,0.8-1.7,1.8-1.8,2.9
	c-0.1,1.1,0.3,2.1,0.7,2.9L82.4,14l4.4,6.2l1.4-1l3.6,4.9c0.1,0.2,2.9,4,7.6,3.6c1.4-0.1,5.6-0.4,6.6-0.3l0.9,0.1l0.2-0.9
	c0.2-1,1.8-4.9,2.4-6.2c1.9-4.4-0.9-8.2-1-8.4l-3.6-4.9L106.2,6.2z M90,15.9l-0.8-0.1l0.2-1.2l1.3,0.2l-0.1,0.6L90,15.9z M87.4,12.3
	l0.5-0.4l0.9,0.1l-0.2,1.4l-1.3-0.2L87.4,12.3z M86.3,13.1L86.3,13.1L86.3,13.1L86.3,13.1z M90.7,9.9l0.8,0.1l-0.2,1.4L90,11.3
	l0.1-0.9L90.7,9.9z M96.3,5.9L96.9,6l-0.2,1.4l-1.3-0.2l0.1-0.7L96.3,5.9z M99.6,4l-0.2,1.4L98,5.2l0.1-0.6L99,3.9L99.6,4z
	 M100.5,4.2l1.4,0.2l-0.2,1.4l-1.4-0.2L100.5,4.2z M99.2,6.4L99,7.8l-1.3-0.2l0.2-1.4L99.2,6.4z M92.6,9.2l0.1-0.8l0.7-0.5L94.2,8
	L94,9.5L92.6,9.2z M93.8,10.4l-0.2,1.4l-1.3-0.2l0.2-1.4L93.8,10.4z M95.2,8.2l1.3,0.2l-0.2,1.4l-1.3-0.2L95.2,8.2z M91.1,12.4
	l-0.2,1.4l-1.3-0.2l0.2-1.4L91.1,12.4z M88.5,14.4l-0.2,1.2l-1.3-0.2l0.2-1.2L88.5,14.4z M92.5,14.1L91.9,14l0.2-1.4l1.3,0.2
	l-0.1,0.7L92.5,14.1z M95.3,12.1L94.5,12l0.2-1.4l1.3,0.2L96,11.6L95.3,12.1z M98,10.1L97.2,10l0.2-1.4l1.3,0.2l-0.1,0.9L98,10.1z
	 M100.8,8.1L99.9,8l0.2-1.4l1.4,0.2l-0.1,0.9L100.8,8.1z M103.6,6.1L102.7,6l0.2-1.4l0.2,0l0.9,1.2L103.6,6.1z M102.2,3.2l0,0.2
	l-1.4-0.2l0.1-0.5l0.7-0.5L102.2,3.2z M85.2,13.9l1,0.2L86,15.3l-0.8-0.1l-0.6-0.8L85.2,13.9z M86.6,17.2l0.1-0.8l1.3,0.2L88,17.4
	l-0.8,0.6L86.6,17.2z M106.9,13.2c0.1,0.1,2.2,3.1,0.8,6.5c-1.2,2.9-1.9,4.7-2.3,5.8c-1.1,0-3.1,0.1-6.2,0.3
	c-3.7,0.3-5.8-2.7-5.9-2.8L89.8,18l13.6-9.8L106.9,13.2z"/>
</svg>
